<?xml version="1.0" standalone="no"?>
<!DOCTYPE svg PUBLIC "-//W3C//DTD SVG 20010904//EN"
 "http://www.w3.org/TR/2001/REC-SVG-20010904/DTD/svg10.dtd">
<svg version="1.0" xmlns="http://www.w3.org/2000/svg"
 width="500.000000pt" height="500.000000pt" viewBox="0 0 500.000000 500.000000"
 preserveAspectRatio="xMidYMid meet">
<metadata>
Created by potrace 1.14, written by Peter Selinger 2001-2017
</metadata>
<g transform="translate(0.000000,500.000000) scale(0.100000,-0.100000)"
fill="#000000" stroke="none">
<path d="M1596 4683 c-1 -1 -13 -4 -26 -6 -160 -30 -268 -99 -490 -319 -252
-249 -488 -532 -564 -677 -19 -36 -40 -94 -47 -128 -10 -48 -16 -60 -26 -52
-21 18 -68 0 -110 -44 -61 -62 -263 -346 -265 -371 -4 -71 19 -141 79 -235 38
-58 187 -213 268 -277 28 -21 52 -41 55 -44 3 -3 27 -24 55 -45 27 -22 55 -44
61 -50 6 -5 71 -55 144 -110 73 -55 167 -127 210 -160 42 -33 89 -69 104 -80
15 -11 98 -76 184 -143 86 -68 180 -141 207 -162 28 -21 60 -46 72 -56 12 -11
35 -29 50 -41 15 -12 76 -59 134 -105 58 -45 121 -94 139 -108 41 -31 93 -73
100 -80 3 -3 21 -17 40 -30 19 -13 37 -27 40 -30 3 -3 25 -21 50 -40 25 -19
52 -40 60 -47 8 -7 125 -98 260 -203 135 -105 254 -198 265 -208 11 -9 58 -46
105 -82 93 -71 116 -90 134 -105 29 -28 215 -155 225 -155 6 0 11 -4 11 -10 0
-5 4 -10 9 -10 5 0 38 -17 72 -38 115 -70 330 -175 434 -212 183 -66 332 -114
425 -138 93 -23 125 -26 280 -27 158 0 181 2 240 23 85 30 191 84 197 100 3 6
11 12 17 12 19 0 115 108 140 159 59 116 57 247 -5 378 -16 34 -149 241 -295
460 -146 219 -281 426 -300 459 -32 57 -62 134 -95 244 -7 25 -24 67 -37 94
-17 36 -21 56 -16 80 14 58 11 75 -18 110 -18 23 -41 38 -63 42 -26 5 -40 16
-64 56 -17 27 -31 51 -31 54 0 2 -11 22 -25 45 -21 33 -24 45 -17 72 10 37 4
97 -9 97 -5 0 -9 6 -9 14 0 13 -39 36 -85 50 -21 6 -122 173 -116 191 2 6 4
15 5 20 1 6 4 15 8 20 8 13 -16 83 -35 102 -8 8 -32 20 -53 28 -31 10 -45 24
-69 66 -55 97 -60 114 -41 153 20 42 20 57 2 101 -10 22 -27 41 -50 51 -32 16
-36 22 -51 93 -28 129 -46 174 -84 209 -20 19 -42 40 -50 47 -7 7 -27 53 -42
102 -45 141 -70 151 -211 85 -47 -23 -153 -69 -235 -102 l-148 -62 -99 7 c-55
3 -102 7 -105 9 -3 2 -34 6 -68 10 -82 9 -204 40 -270 71 -156 71 -205 162
-288 540 -61 277 -76 309 -155 333 -29 9 -106 13 -114 5z"/>
</g>
</svg>
